<mxfile host="app.diagrams.net" modified="2022-08-04T07:51:59.906Z" agent="5.0 (Macintosh; Intel Mac OS X 10_15_7) AppleWebKit/537.36 (KHTML, like Gecko) Chrome/103.0.0.0 Safari/537.36" etag="7Bh7aJI0tk7nNKpWNr85" version="20.2.3" type="github">
  <diagram id="BcAT3T0LUS_p7uzFLiAl" name="Page-1">
    <mxGraphModel dx="124" dy="77" grid="1" gridSize="10" guides="1" tooltips="1" connect="1" arrows="1" fold="1" page="1" pageScale="1" pageWidth="200" pageHeight="160" math="0" shadow="0">
      <root>
        <mxCell id="0" />
        <mxCell id="1" parent="0" />
      </root>
    </mxGraphModel>
  </diagram>
</mxfile>
